<mxfile host="app.diagrams.net" modified="2023-06-13T04:23:48.934Z" agent="Mozilla/5.0 (Windows NT 10.0; Win64; x64) AppleWebKit/537.36 (KHTML, like Gecko) Chrome/113.0.0.0 Safari/537.36" version="21.3.8" etag="AJomKWTLEY_Ne4KCtFXj" type="github">
  <diagram name="Page-1" id="gY47nruihk5h_IDp5J6Z">
    <mxGraphModel>
      <root>
        <mxCell id="0" />
        <mxCell id="1" parent="0" />
      </root>
    </mxGraphModel>
  </diagram>
</mxfile>
